<?xml version="1.0" encoding="UTF-8" standalone="no"?>
<!DOCTYPE svg PUBLIC "-//W3C//DTD SVG 1.1//EN" "http://www.w3.org/Graphics/SVG/1.1/DTD/svg11.dtd">
<svg xmlns="http://www.w3.org/2000/svg" version="1.1" viewBox="0.00 0.00 500.00 138.00">
<g stroke-width="2.00" fill="none" stroke-linecap="butt">
<path stroke="#a88f9f" vector-effect="non-scaling-stroke" d="
  M 202.79 34.46
  L 197.23 34.40"
/>
<path stroke="#a88f9f" vector-effect="non-scaling-stroke" d="
  M 153.92 33.75
  Q 151.14 34.95 148.03 34.34"
/>
<path stroke="#2e3970" vector-effect="non-scaling-stroke" d="
  M 300.80 39.78
  Q 297.36 40.64 293.99 39.84"
/>
<path stroke="#2e3970" vector-effect="non-scaling-stroke" d="
  M 254.95 39.89
  Q 251.74 40.91 248.17 39.94"
/>
<path stroke="#2e3970" vector-effect="non-scaling-stroke" d="
  M 206.26 40.94
  Q 204.00 39.91 201.77 40.70"
/>
<path stroke="#a88f9f" vector-effect="non-scaling-stroke" d="
  M 156.35 41.07
  Q 152.44 40.27 148.91 41.10"
/>
<path stroke="#2e3970" vector-effect="non-scaling-stroke" d="
  M 301.03 34.26
  L 293.86 34.15"
/>
<path stroke="#7a5630" vector-effect="non-scaling-stroke" d="
  M 206.80 41.28
  Q 203.70 40.55 202.31 40.92"
/>
<path stroke="#2e3970" vector-effect="non-scaling-stroke" d="
  M 255.03 34.25
  L 248.04 34.34"
/>
</g>
<path fill="#d8bf9d" d="
  M 106.05 31.93
  C 103.29 32.86 99.68 30.95 97.18 29.72
  Q 96.72 29.49 96.47 29.05
  Q 94.36 25.36 93.59 21.91
  Q 92.61 17.52 96.15 12.74
  Q 97.89 10.39 100.97 9.80
  C 104.15 9.19 109.66 8.88 112.10 11.34
  C 115.90 15.18 116.19 20.85 114.16 25.80
  C 112.66 29.45 109.50 30.76 106.05 31.93
  Z
  M 102.6443 29.6122
  A 9.35 9.25 100.2 0 0 113.4038 22.0480
  A 9.35 9.25 100.2 0 0 105.9557 11.2078
  A 9.35 9.25 100.2 0 0 95.1962 18.7720
  A 9.35 9.25 100.2 0 0 102.6443 29.6122
  Z"
/>
<path fill="#f4ab5f" d="
  M 202.79 34.46
  L 197.23 34.40
  C 192.48 28.74 187.76 23.38 181.39 19.98
  Q 172.13 15.04 161.60 16.90
  Q 154.24 18.20 152.92 25.02
  C 152.34 28.01 153.96 30.55 153.92 33.75
  Q 151.14 34.95 148.03 34.34
  Q 144.23 27.37 147.00 19.77
  C 148.96 14.40 156.13 11.13 161.13 10.62
  Q 174.64 9.25 185.68 16.27
  Q 189.03 18.41 197.19 25.59
  Q 201.72 29.58 202.79 34.46
  Z"
/>
<path fill="#000000" d="
  M 255.03 34.25
  L 248.04 34.34
  L 248.01 27.33
  Q 248.01 26.32 249.02 26.32
  L 253.95 26.29
  A 1.00 1.00 0.0 0 1 254.95 27.28
  L 255.03 34.25
  Z"
/>
<path fill="#000000" d="
  M 301.03 34.26
  L 293.86 34.15
  L 293.92 27.28
  Q 293.93 26.31 294.90 26.31
  L 299.93 26.30
  A 0.96 0.95 89.1 0 1 300.89 27.24
  L 301.03 34.26
  Z"
/>
<path fill="#5b72df" d="
  M 153.92 33.75
  Q 154.95 34.91 156.50 34.95
  Q 174.34 35.37 197.23 34.40
  L 202.79 34.46
  L 248.04 34.34
  L 255.03 34.25
  L 293.86 34.15
  L 301.03 34.26
  L 338.03 34.25
  Q 339.55 34.25 339.53 35.77
  L 339.51 37.96
  Q 339.49 39.51 337.93 39.52
  L 300.80 39.78
  Q 297.36 40.64 293.99 39.84
  L 254.95 39.89
  Q 251.74 40.91 248.17 39.94
  Q 233.02 39.98 217.63 40.13
  Q 215.00 40.16 206.26 40.94
  Q 204.00 39.91 201.77 40.70
  Q 182.66 40.34 163.50 40.55
  Q 161.06 40.57 156.35 41.07
  Q 152.44 40.27 148.91 41.10
  L 141.53 40.74
  A 1.31 1.31 0.0 0 1 140.28 39.44
  L 140.22 36.01
  Q 140.20 34.78 141.42 34.95
  Q 144.87 35.42 148.03 34.34
  Q 151.14 34.95 153.92 33.75
  Z"
/>
<path fill="#f4ab5f" d="
  M 148.91 41.10
  Q 152.44 40.27 156.35 41.07
  L 156.26 71.49
  A 0.95 0.95 0.0 0 0 156.88 72.38
  C 157.94 72.78 160.02 73.40 160.22 74.72
  Q 160.30 75.25 159.76 75.30
  Q 158.08 75.44 156.70 76.18
  A 1.06 1.05 -14.2 0 0 156.14 77.11
  L 156.07 88.85
  Q 156.05 91.76 153.15 91.75
  L 151.79 91.75
  Q 149.09 91.75 149.11 89.04
  L 149.15 81.98
  Q 149.16 81.02 148.50 80.32
  Q 148.04 79.84 147.62 79.99
  Q 146.30 80.47 146.24 81.87
  C 145.87 91.10 129.40 95.94 122.06 97.25
  Q 118.99 97.80 115.89 97.75
  C 113.05 97.71 110.34 98.23 107.55 98.27
  Q 95.40 98.43 91.29 97.79
  Q 85.43 96.88 80.53 95.70
  C 76.15 94.64 66.91 91.23 64.26 86.72
  Q 63.14 84.82 62.44 82.65
  A 3.23 3.20 85.8 0 0 59.94 80.47
  Q 56.05 79.80 53.37 76.98
  C 52.24 75.80 50.81 75.63 49.27 75.61
  A 1.12 1.12 0.0 0 1 48.16 74.45
  C 48.20 73.14 49.36 72.40 50.55 72.29
  Q 54.29 71.94 58.01 70.90
  C 61.13 70.03 64.30 70.10 67.36 69.07
  Q 73.33 67.06 78.84 64.95
  A 1.52 1.52 0.0 0 0 79.80 63.81
  Q 81.18 56.83 81.79 49.33
  C 82.03 46.49 83.91 44.07 85.03 41.54
  A 2.01 1.97 -1.0 0 1 86.02 40.53
  Q 89.80 38.76 92.87 36.45
  C 94.78 35.01 96.93 35.79 99.06 35.24
  Q 102.22 34.42 104.83 34.75
  Q 108.76 35.26 112.96 35.28
  Q 113.50 35.29 113.96 35.58
  C 116.60 37.27 119.86 37.66 122.00 39.98
  Q 124.06 42.21 125.90 44.38
  A 2.25 2.18 -69.3 0 1 126.40 45.54
  Q 127.36 53.65 128.62 61.02
  Q 129.33 65.19 133.76 66.48
  Q 141.01 68.59 147.59 70.68
  Q 147.84 70.76 148.08 70.77
  A 0.83 0.82 0.3 0 0 148.92 69.95
  L 148.91 41.10
  Z
  M 90.63 51.56
  Q 91.60 53.69 92.67 55.75
  C 94.22 58.75 93.92 61.87 94.56 65.08
  Q 94.93 66.98 94.23 68.84
  Q 92.34 73.87 90.43 78.17
  Q 89.72 79.77 91.33 80.44
  Q 97.43 82.98 103.68 85.85
  C 106.53 87.15 108.79 84.73 111.27 83.77
  Q 114.65 82.47 118.09 80.82
  Q 119.19 80.30 118.87 79.12
  C 118.44 77.55 118.03 75.77 117.29 74.28
  Q 115.42 70.50 114.52 67.17
  Q 114.34 66.51 114.52 65.85
  Q 115.21 63.28 115.30 60.71
  Q 115.44 56.98 117.49 53.47
  Q 117.81 52.93 117.89 53.55
  L 119.20 63.47
  A 6.94 6.94 0.0 0 0 120.39 66.54
  Q 122.53 69.64 123.94 72.88
  Q 124.16 73.38 124.69 73.54
  C 127.36 74.36 130.51 73.95 133.26 73.86
  C 136.62 73.75 140.32 74.95 143.22 76.75
  Q 145.16 77.94 147.47 78.49
  Q 148.83 78.81 148.82 77.41
  L 148.78 73.09
  Q 148.77 72.17 147.86 71.98
  Q 140.56 70.48 132.88 67.57
  C 131.78 67.15 130.54 67.01 129.37 66.87
  A 1.42 1.42 0.0 0 1 128.14 65.57
  C 128.03 64.18 128.03 63.05 127.54 61.70
  Q 125.32 55.53 125.01 49.41
  Q 124.73 43.75 120.64 41.84
  Q 118.43 40.80 116.24 39.50
  C 112.24 37.12 107.32 37.03 102.58 37.12
  Q 98.54 37.21 96.16 38.23
  Q 94.22 39.08 92.31 39.43
  C 89.05 40.03 89.45 42.88 87.04 44.01
  C 85.66 44.66 84.91 45.96 84.62 47.41
  C 84.02 50.53 84.00 53.65 83.03 56.73
  Q 82.10 59.69 81.75 62.65
  C 81.47 65.00 79.60 67.23 77.12 67.80
  Q 69.87 69.48 63.06 72.31
  C 61.86 72.81 60.51 73.10 59.21 73.29
  Q 58.24 73.43 59.03 74.01
  Q 59.61 74.43 59.65 75.08
  Q 59.70 75.80 58.98 75.92
  Q 57.27 76.19 55.69 75.60
  Q 53.41 74.75 55.05 76.55
  C 58.78 80.64 65.08 77.44 68.77 75.20
  C 72.47 72.95 79.51 73.45 83.40 74.41
  A 1.27 1.25 -65.5 0 0 84.74 73.90
  C 89.40 67.15 92.39 59.94 90.44 51.63
  Q 90.20 50.62 90.63 51.56
  Z
  M 116.03 64.07
  C 114.97 67.57 117.85 73.69 119.56 76.96
  Q 120.62 78.99 122.85 78.52
  Q 123.16 78.45 123.43 78.31
  Q 125.43 77.22 124.05 75.41
  C 122.25 73.08 120.26 71.12 119.31 68.21
  Q 118.64 66.18 117.57 64.39
  Q 117.18 63.73 116.43 63.76
  A 0.44 0.43 -82.5 0 0 116.03 64.07
  Z
  M 89.22 77.08
  C 91.08 73.90 93.94 68.22 92.84 65.48
  Q 92.00 63.40 91.16 65.49
  Q 88.65 71.79 84.92 75.56
  A 1.40 1.40 0.0 0 0 84.97 77.58
  Q 85.67 78.22 86.66 78.34
  Q 88.36 78.56 89.22 77.08
  Z
  M 104.80 96.93
  Q 110.25 97.41 114.89 96.79
  Q 116.23 96.62 116.47 95.42
  A 1.09 1.09 0.0 0 0 115.80 94.20
  Q 112.76 93.00 110.21 91.33
  Q 108.30 90.08 105.84 89.04
  Q 103.38 88.00 100.89 86.75
  Q 96.15 84.38 82.58 77.98
  Q 79.23 76.40 76.69 76.18
  C 74.31 75.96 69.62 75.83 67.47 77.33
  C 65.19 78.93 62.28 80.92 64.49 84.11
  Q 67.38 88.26 71.16 89.70
  C 73.75 90.68 75.75 92.62 78.44 93.33
  C 82.54 94.41 86.34 96.16 90.67 96.20
  Q 93.76 96.23 96.77 96.78
  C 99.49 97.26 102.14 96.70 104.80 96.93
  Z
  M 144.62 84.68
  C 145.31 83.45 145.58 81.50 144.66 80.37
  Q 140.26 75.00 133.27 76.18
  C 131.33 76.50 129.59 76.59 127.77 77.44
  Q 118.76 81.65 109.69 86.44
  Q 108.94 86.83 108.36 87.40
  A 1.15 1.15 0.0 0 0 108.74 89.28
  Q 113.50 91.24 118.22 93.57
  C 125.50 97.16 130.26 93.41 136.73 90.86
  C 139.76 89.66 143.06 87.43 144.62 84.68
  Z"
/>
<path fill="#000000" d="
  M 254.95 39.89
  L 254.92 86.13
  Q 254.92 87.02 254.03 86.99
  L 249.52 86.81
  A 0.74 0.73 -89.2 0 1 248.81 86.07
  Q 248.82 83.45 248.10 80.96
  Q 247.75 79.75 246.98 80.75
  Q 242.10 87.13 234.31 87.54
  C 204.62 89.11 204.84 43.41 233.32 44.34
  Q 240.83 44.58 245.79 49.64
  Q 246.58 50.44 246.98 51.55
  A 0.35 0.35 0.0 0 0 247.56 51.67
  Q 248.17 51.04 248.08 50.00
  Q 247.82 47.31 248.17 39.94
  Q 251.74 40.91 254.95 39.89
  Z
  M 233.3233 82.2699
  A 16.24 14.70 90.2 0 0 248.0799 66.0813
  A 16.24 14.70 90.2 0 0 233.4367 49.7901
  A 16.24 14.70 90.2 0 0 218.6801 65.9787
  A 16.24 14.70 90.2 0 0 233.3233 82.2699
  Z"
/>
<path fill="#000000" d="
  M 293.99 39.84
  Q 297.36 40.64 300.80 39.78
  L 300.92 51.22
  Q 300.93 52.14 301.60 51.51
  C 302.49 50.67 302.87 49.53 303.84 48.70
  Q 309.53 43.80 316.94 44.40
  Q 326.12 45.13 329.53 53.07
  Q 331.11 56.77 331.17 61.32
  Q 331.33 73.46 331.19 86.00
  Q 331.19 86.93 330.26 86.93
  L 325.56 86.97
  Q 324.62 86.98 324.62 86.03
  Q 324.57 73.76 324.65 62.78
  Q 324.67 59.95 323.62 56.62
  C 322.08 51.72 317.77 49.46 312.85 50.00
  C 304.95 50.87 300.91 56.79 300.84 64.35
  Q 300.73 75.31 300.83 85.92
  Q 300.84 86.98 299.78 86.96
  L 294.95 86.90
  Q 293.97 86.88 293.97 85.91
  L 293.99 39.84
  Z"
/>
<path fill="#000000" d="
  M 206.26 40.94
  Q 206.53 41.11 206.80 41.28
  Q 203.70 40.55 202.31 40.92
  Q 202.12 40.69 201.77 40.70
  Q 204.00 39.91 206.26 40.94
  Z"
/>
<path fill="#f4ab5f" d="
  M 206.80 41.28
  L 207.02 90.39
  Q 207.02 91.50 205.92 91.54
  L 202.13 91.71
  Q 200.63 91.78 200.48 90.29
  C 200.02 85.94 200.84 81.45 200.00 77.20
  A 0.92 0.92 0.0 0 0 198.53 76.65
  Q 191.10 82.34 180.05 79.83
  C 176.07 78.92 173.69 76.46 171.36 73.24
  Q 169.20 70.26 169.21 66.49
  C 169.23 60.07 172.15 53.74 178.36 51.46
  Q 186.85 48.35 195.03 50.44
  Q 196.94 50.93 196.73 52.90
  L 196.53 54.66
  Q 196.30 56.82 194.17 56.40
  Q 188.45 55.30 183.46 56.27
  C 178.87 57.17 175.45 61.28 175.72 66.16
  C 175.82 67.90 176.18 71.50 177.82 72.46
  C 186.16 77.32 193.07 74.77 199.64 68.76
  Q 200.22 68.24 200.22 67.47
  Q 200.30 54.51 200.15 42.62
  Q 200.13 41.09 202.31 40.92
  Q 203.70 40.55 206.80 41.28
  Z"
/>
<path fill="#000000" d="
  M 267.07 55.35
  L 267.09 64.75
  A 0.66 0.66 0.0 0 0 267.75 65.41
  L 282.55 65.44
  A 0.66 0.66 0.0 0 1 283.21 66.11
  L 283.13 69.62
  A 0.66 0.66 0.0 0 1 282.47 70.27
  L 267.83 70.30
  A 0.66 0.66 0.0 0 0 267.17 70.95
  L 267.08 81.03
  A 0.66 0.66 0.0 0 0 267.74 81.70
  L 284.31 81.63
  A 0.66 0.66 0.0 0 1 284.97 82.30
  L 284.93 86.31
  A 0.66 0.66 0.0 0 1 284.27 86.96
  L 261.36 86.94
  A 0.66 0.66 0.0 0 1 260.70 86.28
  L 260.76 50.31
  A 0.66 0.66 0.0 0 1 261.41 49.66
  L 284.34 49.51
  A 0.66 0.66 0.0 0 1 285.00 50.18
  L 284.94 54.08
  A 0.66 0.66 0.0 0 1 284.28 54.73
  L 267.73 54.69
  A 0.66 0.66 0.0 0 0 267.07 55.35
  Z"
/>
<path fill="#000000" d="
  M 291.47 108.39
  C 292.57 108.11 293.74 107.76 294.88 107.97
  Q 299.49 108.82 299.51 113.82
  Q 299.52 118.50 299.45 123.24
  Q 299.44 123.94 298.73 123.94
  L 295.47 123.92
  A 0.72 0.71 89.6 0 1 294.76 123.21
  L 294.73 114.86
  Q 294.73 113.00 292.92 112.59
  Q 292.58 112.52 292.26 112.61
  Q 290.77 113.03 290.77 114.57
  L 290.75 123.25
  Q 290.75 123.99 290.00 123.98
  L 286.51 123.91
  A 0.66 0.65 0.4 0 1 285.86 123.26
  L 285.84 102.20
  Q 285.84 101.23 286.80 101.20
  L 289.77 101.09
  Q 290.75 101.05 290.76 102.03
  L 290.76 107.83
  Q 290.76 108.56 291.47 108.39
  Z"
/>
<path fill="#000000" d="
  M 337.94 107.78
  Q 337.93 108.65 338.76 108.37
  C 343.87 106.65 347.00 109.93 346.97 114.87
  Q 346.94 119.66 346.96 123.72
  Q 346.96 123.99 346.68 123.99
  L 342.35 123.94
  Q 341.95 123.94 341.95 123.55
  L 341.91 114.14
  Q 341.91 112.50 340.27 112.59
  L 339.72 112.62
  Q 338.02 112.70 338.02 114.41
  L 337.98 123.13
  Q 337.98 123.98 337.12 123.98
  L 333.99 123.97
  Q 333.01 123.97 333.01 122.99
  L 333.01 102.00
  Q 333.01 101.04 333.97 101.06
  L 337.23 101.14
  Q 338.04 101.16 338.03 101.98
  L 337.94 107.78
  Z"
/>
<path fill="#000000" d="
  M 327.48 108.02
  L 329.93 108.02
  Q 330.60 108.02 330.60 108.68
  L 330.64 111.65
  Q 330.65 112.45 329.85 112.49
  L 327.46 112.62
  Q 326.89 112.65 326.90 113.23
  L 326.99 117.96
  A 1.03 1.01 13.2 0 0 327.55 118.85
  Q 328.64 119.39 329.78 119.31
  Q 330.73 119.24 330.74 120.18
  L 330.77 123.04
  Q 330.78 123.89 329.92 123.96
  Q 321.69 124.58 321.99 116.42
  Q 322.18 110.98 321.94 105.18
  Q 321.90 104.32 322.77 104.30
  L 326.13 104.24
  Q 327.03 104.23 327.01 105.13
  L 326.96 107.48
  Q 326.95 108.02 327.48 108.02
  Z"
/>
<path fill="#000000" d="
  M 306.84 116.03
  Q 307.22 120.81 312.46 119.50
  Q 312.82 119.40 312.80 119.78
  L 312.63 123.43
  Q 312.63 123.58 312.49 123.62
  Q 307.15 125.30 303.82 121.51
  C 301.01 118.32 301.23 112.71 304.59 109.94
  Q 307.30 107.69 310.91 107.88
  C 316.20 108.17 319.57 111.33 319.29 116.72
  Q 319.13 119.74 319.28 122.67
  Q 319.35 124.05 317.98 123.96
  L 314.90 123.78
  Q 314.23 123.74 314.26 123.06
  Q 314.42 119.36 314.20 115.49
  C 313.94 110.78 306.47 111.47 306.84 116.03
  Z"
/>
<path fill="#000000" d="
  M 355.76 112.95
  C 351.95 115.33 354.78 120.84 359.11 119.56
  Q 359.97 119.31 359.98 120.20
  L 360.00 122.50
  Q 360.01 123.71 358.84 123.96
  C 348.05 126.27 345.16 110.49 355.42 108.15
  C 360.45 107.00 366.41 109.46 366.50 115.23
  Q 366.56 119.23 366.49 123.31
  Q 366.48 124.00 365.79 123.99
  L 362.35 123.99
  A 0.65 0.65 0.0 0 1 361.70 123.35
  L 361.52 115.22
  A 2.61 2.59 14.9 0 0 360.24 113.04
  Q 357.88 111.62 355.76 112.95
  Z"
/>
<path fill="#000000" d="
  M 410.67 116.02
  A 8.08 8.08 0.0 0 1 402.59 124.10
  A 8.08 8.08 0.0 0 1 394.51 116.02
  A 8.08 8.08 0.0 0 1 402.59 107.94
  A 8.08 8.08 0.0 0 1 410.67 116.02
  Z
  M 406.02 116.02
  A 3.38 3.38 0.0 0 0 402.64 112.64
  A 3.38 3.38 0.0 0 0 399.26 116.02
  A 3.38 3.38 0.0 0 0 402.64 119.40
  A 3.38 3.38 0.0 0 0 406.02 116.02
  Z"
/>
<path fill="#000000" d="
  M 417.41 114.98
  C 416.94 117.86 418.79 119.96 421.70 119.17
  Q 422.46 118.97 422.47 119.76
  L 422.51 122.96
  A 0.79 0.78 83.2 0 1 421.90 123.74
  C 414.46 125.41 410.28 116.58 414.23 111.10
  C 418.07 105.76 426.75 107.15 428.09 113.76
  Q 428.78 117.14 428.56 122.59
  Q 428.20 131.19 419.60 131.03
  Q 417.49 130.99 415.79 130.56
  Q 414.95 130.35 414.95 129.49
  L 414.93 126.26
  Q 414.93 125.53 415.61 125.79
  C 418.09 126.73 423.86 127.31 423.81 123.20
  Q 423.77 119.77 423.79 116.11
  C 423.82 111.55 418.04 111.08 417.41 114.98
  Z"
/>
<path fill="#000000" d="
  M 443.52 116.47
  C 443.51 110.00 435.12 111.97 436.07 116.45
  Q 436.93 120.48 441.26 119.51
  Q 441.87 119.37 441.94 119.99
  Q 442.21 122.09 441.67 123.60
  Q 441.59 123.81 441.37 123.85
  C 428.38 126.66 427.52 107.67 439.69 107.82
  C 443.84 107.87 448.21 110.16 448.43 114.62
  Q 448.63 118.61 448.50 123.28
  Q 448.48 123.96 447.81 123.96
  L 444.27 123.99
  A 0.71 0.71 0.0 0 1 443.56 123.28
  Q 443.53 120.07 443.52 116.47
  Z"
/>
<path fill="#000000" d="
  M 382.35 123.79
  C 379.90 123.02 378.71 120.81 378.73 118.35
  Q 378.77 113.48 378.70 108.54
  Q 378.70 108.16 379.08 108.17
  L 382.97 108.19
  Q 383.50 108.19 383.50 108.72
  L 383.49 117.60
  Q 383.49 118.98 384.77 119.50
  Q 385.18 119.66 385.60 119.64
  Q 387.33 119.52 387.36 117.78
  L 387.48 108.71
  A 0.57 0.56 -0.5 0 1 388.04 108.15
  L 391.77 108.08
  Q 392.25 108.07 392.25 108.56
  Q 392.16 113.20 392.24 118.24
  C 392.27 120.84 391.05 122.77 388.63 123.77
  Q 388.02 124.03 388.02 124.69
  L 388.01 130.50
  Q 388.01 130.76 387.75 130.76
  L 383.10 130.78
  Q 382.93 130.78 382.93 130.61
  L 383.05 124.77
  Q 383.07 124.01 382.35 123.79
  Z"
/>
</svg>
